{
    "asset" : {
        "generator" : "Khronos glTF Blender I/O v3.2.43",
        "version" : "2.0"
    },
    "scene" : 0,
    "scenes" : [
        {
            "name" : "Scene",
            "nodes" : [
                0
            ]
        }
    ],
    "nodes" : [
        {
            "mesh" : 0,
            "name" : "Sphere.002"
        }
    ],
    "animations" : [
        {
            "channels" : [
                {
                    "sampler" : 0,
                    "target" : {
                        "node" : 0,
                        "path" : "translation"
                    }
                },
                {
                    "sampler" : 1,
                    "target" : {
                        "node" : 0,
                        "path" : "rotation"
                    }
                },
                {
                    "sampler" : 2,
                    "target" : {
                        "node" : 0,
                        "path" : "scale"
                    }
                }
            ],
            "name" : "Sphere.002Action.001",
            "samplers" : [
                {
                    "input" : 4,
                    "interpolation" : "LINEAR",
                    "output" : 5
                },
                {
                    "input" : 4,
                    "interpolation" : "LINEAR",
                    "output" : 6
                },
                {
                    "input" : 4,
                    "interpolation" : "LINEAR",
                    "output" : 7
                }
            ]
        }
    ],
    "materials" : [
        {
            "emissiveFactor" : [
                0.059656319208443165,
                1,
                0
            ],
            "name" : "Arestas",
            "pbrMetallicRoughness" : {
                "baseColorFactor" : [
                    0.06024729833006859,
                    0.8000000715255737,
                    0,
                    1
                ],
                "metallicFactor" : 0
            }
        }
    ],
    "meshes" : [
        {
            "name" : "Sphere.008",
            "primitives" : [
                {
                    "attributes" : {
                        "POSITION" : 0,
                        "NORMAL" : 1,
                        "TEXCOORD_0" : 2
                    },
                    "indices" : 3,
                    "material" : 0
                }
            ]
        }
    ],
    "accessors" : [
        {
            "bufferView" : 0,
            "componentType" : 5126,
            "count" : 5031,
            "max" : [
                0.9995631575584412,
                0.997751772403717,
                0.9995628595352173
            ],
            "min" : [
                -0.9995625019073486,
                -0.997751772403717,
                -0.9995622634887695
            ],
            "type" : "VEC3"
        },
        {
            "bufferView" : 1,
            "componentType" : 5126,
            "count" : 5031,
            "type" : "VEC3"
        },
        {
            "bufferView" : 2,
            "componentType" : 5126,
            "count" : 5031,
            "type" : "VEC2"
        },
        {
            "bufferView" : 3,
            "componentType" : 5123,
            "count" : 22098,
            "type" : "SCALAR"
        },
        {
            "bufferView" : 4,
            "componentType" : 5126,
            "count" : 31,
            "max" : [
                1.25
            ],
            "min" : [
                0
            ],
            "type" : "SCALAR"
        },
        {
            "bufferView" : 5,
            "componentType" : 5126,
            "count" : 31,
            "type" : "VEC3"
        },
        {
            "bufferView" : 6,
            "componentType" : 5126,
            "count" : 31,
            "type" : "VEC4"
        },
        {
            "bufferView" : 7,
            "componentType" : 5126,
            "count" : 31,
            "type" : "VEC3"
        }
    ],
    "bufferViews" : [
        {
            "buffer" : 0,
            "byteLength" : 60372,
            "byteOffset" : 0
        },
        {
            "buffer" : 0,
            "byteLength" : 60372,
            "byteOffset" : 60372
        },
        {
            "buffer" : 0,
            "byteLength" : 40248,
            "byteOffset" : 120744
        },
        {
            "buffer" : 0,
            "byteLength" : 44196,
            "byteOffset" : 160992
        },
        {
            "buffer" : 0,
            "byteLength" : 124,
            "byteOffset" : 205188
        },
        {
            "buffer" : 0,
            "byteLength" : 372,
            "byteOffset" : 205312
        },
        {
            "buffer" : 0,
            "byteLength" : 496,
            "byteOffset" : 205684
        },
        {
            "buffer" : 0,
            "byteLength" : 372,
            "byteOffset" : 206180
        }
    ],
    "buffers" : [
        {
            "byteLength" : 206552,
            "uri" : "data:application/octet-stream;base64,"
        }
    ]
}
